<?xml version="1.0" standalone="no"?>
<!DOCTYPE svg PUBLIC "-//W3C//DTD SVG 20010904//EN"
 "http://www.w3.org/TR/2001/REC-SVG-20010904/DTD/svg10.dtd">
<svg version="1.0" xmlns="http://www.w3.org/2000/svg"
 width="500.000000pt" height="500.000000pt" viewBox="0 0 500.000000 500.000000"
 preserveAspectRatio="xMidYMid meet">
<metadata>
Created by potrace 1.14, written by Peter Selinger 2001-2017
</metadata>
<g transform="translate(0.000000,500.000000) scale(0.100000,-0.100000)"
fill="#000000" stroke="none">
<path d="M1445 4348 c-118 -41 -143 -205 -42 -282 82 -63 186 -41 247 52 20
30 48 34 138 18 189 -33 364 -146 466 -301 50 -75 51 -78 16 -99 -56 -33 -64
-93 -18 -136 21 -19 35 -20 251 -20 196 0 233 2 257 17 55 32 46 120 -16 143
-31 12 -30 16 5 72 46 73 136 168 199 211 91 62 230 111 344 122 55 5 57 4 80
-28 48 -68 91 -91 159 -85 155 15 202 207 75 302 -20 16 -42 21 -86 21 -50 0
-65 -5 -111 -37 -37 -25 -70 -38 -104 -42 -94 -12 -110 -14 -155 -25 -231 -53
-423 -203 -540 -423 l-41 -78 -54 0 c-62 0 -72 7 -111 85 -42 82 -130 192
-206 256 -120 100 -280 164 -465 183 -64 7 -74 11 -135 53 -53 35 -96 41 -153
21z"/>
<path d="M715 3795 c-33 -20 -67 -40 -75 -45 -20 -12 -410 -242 -432 -255 -10
-5 -59 -35 -108 -65 l-91 -55 1 -455 1 -455 127 -74 c342 -198 545 -318 570
-333 15 -10 34 -21 42 -25 8 -4 114 -65 235 -136 121 -71 238 -139 260 -152
22 -12 87 -50 145 -85 126 -75 189 -110 196 -110 3 0 4 404 3 897 -1 779 -3
900 -16 920 -9 13 -19 23 -23 23 -4 0 -144 82 -311 181 -167 100 -317 190
-334 199 -16 9 -46 27 -65 38 -46 29 -55 28 -125 -13z"/>
<path d="M4075 3745 c-77 -46 -151 -90 -165 -98 -14 -7 -110 -64 -215 -127
-104 -62 -202 -119 -218 -127 -15 -8 -32 -23 -37 -33 -6 -12 -10 -340 -10
-914 0 -849 1 -895 18 -889 9 4 55 29 102 56 47 27 99 57 115 67 90 52 752
439 820 480 44 26 100 59 125 73 35 19 272 157 373 217 16 9 17 43 17 473 l0
462 -102 60 c-57 33 -227 133 -378 222 -151 90 -281 163 -290 163 -8 0 -78
-38 -155 -85z"/>
<path d="M2203 3495 c-17 -7 -50 -38 -72 -69 -27 -37 -49 -56 -64 -57 -12 -1
-89 -2 -172 -3 l-150 -1 -2 -177 -1 -178 768 0 768 0 0 163 c0 89 -2 169 -4
177 -3 13 -30 15 -170 16 -186 0 -165 -8 -232 81 -45 59 -60 62 -362 62 -208
0 -283 -4 -307 -14z"/>
<path d="M1746 2731 c-2 -3 -3 -82 -2 -176 l1 -170 740 -2 c407 -1 752 0 768
3 l27 6 0 172 0 173 -765 0 c-421 0 -767 -3 -769 -6z"/>
<path d="M1743 1940 c-1 -105 3 -172 9 -176 7 -5 1434 -9 1515 -5 8 1 11 48
11 176 l-1 175 -767 0 -767 0 0 -170z"/>
<path d="M1820 1472 c0 -12 99 -132 144 -175 40 -38 139 -110 183 -133 12 -7
48 -22 80 -34 53 -20 76 -22 274 -22 232 1 267 6 359 52 123 62 280 204 329
298 l12 22 -691 0 c-379 0 -690 -4 -690 -8z"/>
<path d="M2300 992 c0 -13 205 -362 212 -362 5 0 12 8 16 18 6 14 73 134 107
190 29 47 85 150 85 154 0 2 -94 5 -210 5 -115 0 -210 -3 -210 -5z"/>
</g>
</svg>
