<svg version="1.1" id="Layer_1" xmlns="http://www.w3.org/2000/svg" xmlns:xlink="http://www.w3.org/1999/xlink" x="0px" y="0px"
	 width="100%" viewBox="0 0 500 500" enable-background="new 0 0 500 500" xml:space="preserve">
<path fill="rgba(255, 0, 0, 0)" opacity="1.000000" stroke="none" 
	d="
M1.000002,162.000000 
	C1.000000,108.361908 1.000000,54.723808 1.000000,1.042857 
	C167.549362,1.042857 334.098724,1.042857 501.000000,1.042857 
	C501.000000,54.353710 501.000000,107.708199 500.644989,161.526489 
	C475.818115,147.484940 451.319641,133.024094 426.910980,118.413132 
	C424.122772,116.744125 422.099426,116.692291 419.265320,118.389702 
	C395.143585,132.836731 370.942078,147.151535 346.687897,161.375320 
	C344.057098,162.918167 343.082916,164.598495 343.087738,167.659149 
	C343.179382,225.649216 343.153320,283.639435 343.169220,341.629639 
	C343.169495,342.675476 343.382355,343.721222 343.536011,345.134949 
	C345.318268,344.190643 346.647766,343.546906 347.919220,342.803802 
	C397.182953,314.009979 446.438416,285.202057 495.713196,256.427124 
	C497.379639,255.453995 499.233490,254.801773 501.000000,254.000000 
	C501.000000,336.297089 501.000000,418.594208 501.000000,500.945648 
	C334.442932,500.945648 167.885849,500.945648 1.000000,500.945648 
	C1.000000,418.979401 1.000000,336.958344 1.356984,254.392120 
	C3.020442,254.571609 4.341849,255.270752 5.631242,256.024658 
	C55.030300,284.908417 104.425240,313.799194 153.828735,342.675354 
	C155.303024,343.537018 156.863205,344.251709 158.838379,345.269409 
	C158.838379,285.082916 158.864807,225.767273 158.698685,166.452179 
	C158.694138,164.830353 156.981506,162.604950 155.450287,161.686691 
	C131.195877,147.141327 106.815575,132.805954 82.544510,118.288086 
	C79.904945,116.709213 77.947189,116.688805 75.333298,118.265907 
	C61.802628,126.429718 48.183460,134.447662 34.559193,142.455292 
	C23.398960,149.014709 12.188306,155.488342 1.000002,162.000000 
M210.499954,199.170547 
	C249.579086,199.170547 288.658203,199.170547 327.756775,199.170547 
	C327.756775,186.949799 327.756775,175.416901 327.756775,163.477402 
	C317.556915,163.477402 307.745880,163.304840 297.946136,163.561890 
	C293.997528,163.665482 291.745056,162.507919 289.758698,158.899658 
	C286.140564,152.327316 281.024841,148.393707 272.499512,148.805710 
	C258.040466,149.504425 243.501617,149.471481 229.038834,148.812561 
	C220.916916,148.442535 215.916519,152.234573 212.485535,158.392365 
	C210.175461,162.538422 207.567795,163.729874 203.089783,163.577621 
	C193.484344,163.251007 183.860092,163.477463 174.215408,163.477463 
	C174.215408,175.697952 174.215408,187.259064 174.215408,199.170578 
	C186.224152,199.170578 197.862045,199.170578 210.499954,199.170547 
M328.084869,260.159821 
	C328.084869,248.903046 328.084869,237.646271 328.084869,226.253128 
	C276.458344,226.253128 225.416641,226.253128 174.287323,226.253128 
	C174.287323,238.184662 174.287323,249.855057 174.287323,261.637817 
	C175.540070,261.721497 176.356232,261.823578 177.172424,261.823730 
	C226.130890,261.832703 275.089355,261.839020 324.047791,261.802368 
	C325.306030,261.801422 326.563965,261.320801 328.084869,260.159821 
M243.500046,288.824493 
	C220.416931,288.824493 197.333817,288.824493 174.232391,288.824493 
	C174.232391,301.050110 174.232391,312.582825 174.232391,324.175018 
	C225.674637,324.175018 276.719971,324.175018 327.771606,324.175018 
	C327.771606,312.259399 327.771606,300.702484 327.771606,288.824463 
	C299.756042,288.824463 272.128052,288.824463 243.500046,288.824493 
M207.484009,97.953842 
	C217.308624,104.873993 224.917557,113.657059 230.326263,124.748634 
	C229.123398,125.251549 228.211670,125.592766 227.334167,126.006493 
	C223.405685,127.858711 221.325104,130.945648 222.319626,135.247482 
	C223.268448,139.351593 226.040176,141.944839 230.497772,141.962387 
	C244.154694,142.016205 257.812134,142.022186 271.468964,141.957489 
	C275.912598,141.936447 278.746216,139.331146 279.647705,135.232590 
	C280.580933,130.989685 278.551544,127.825058 274.590790,125.987869 
	C273.711243,125.579910 272.813507,125.211166 271.724518,124.737534 
	C272.297119,123.467102 272.665802,122.378609 273.240814,121.412956 
	C286.588959,98.996147 306.258179,86.964813 332.326202,85.220047 
	C335.419586,85.012993 336.194305,86.654976 337.410492,88.734711 
	C342.446472,97.346466 353.051849,99.662636 361.167969,94.066765 
	C369.119568,88.584343 370.597168,77.375229 364.356018,69.882271 
	C358.158356,62.441513 346.749084,61.731422 340.074585,68.908386 
	C337.599030,71.570305 335.151764,72.096931 331.912964,72.315247 
	C298.108368,74.593880 273.569244,90.823425 258.852600,121.453308 
	C257.470520,124.329842 255.896698,125.659401 252.829300,125.149017 
	C249.410446,124.580147 245.556625,126.812408 243.115662,121.669159 
	C228.171570,90.180962 202.899384,74.021065 168.234406,72.091774 
	C166.375778,71.988335 164.176788,70.932365 162.848160,69.606445 
	C157.308594,64.078156 150.384445,62.394039 143.706360,65.378944 
	C136.662613,68.527298 133.039383,74.959633 133.926193,82.741821 
	C134.709000,89.611221 140.077301,95.378899 146.980667,96.767509 
	C154.111343,98.201843 161.142044,95.208687 164.636078,88.437820 
	C166.223526,85.361656 168.087830,85.173439 170.951462,85.346062 
	C184.066910,86.136696 195.996765,90.293373 207.484009,97.953842 
M254.500000,351.999420 
	C230.454605,351.999420 206.409210,351.999420 181.540787,351.999420 
	C188.130524,362.822632 195.994690,371.220490 205.614365,377.908386 
	C215.987137,385.119904 226.835846,390.762268 240.263016,389.296753 
	C247.005142,388.560883 253.947464,388.623993 260.704559,389.288422 
	C272.628296,390.460846 282.867004,386.692047 292.628113,380.400452 
	C303.812042,373.191803 312.940002,364.077332 320.484558,351.999420 
	C298.261597,351.999420 276.880798,351.999420 254.500000,351.999420 
M237.692413,414.856964 
	C241.976501,422.298401 246.260590,429.739838 251.002167,437.975922 
	C258.427124,425.071289 265.406342,412.941376 272.643829,400.362610 
	C257.929688,400.362610 243.969528,400.362610 229.406158,400.362610 
	C232.232407,405.347656 234.755890,409.798676 237.692413,414.856964 
z"/>
<path fill="#C1C6CF" opacity="1.000000" stroke="none" 
	d="
M1.000002,162.468658 
	C12.188306,155.488342 23.398960,149.014709 34.559193,142.455292 
	C48.183460,134.447662 61.802628,126.429718 75.333298,118.265907 
	C77.947189,116.688805 79.904945,116.709213 82.544510,118.288086 
	C106.815575,132.805954 131.195877,147.141327 155.450287,161.686691 
	C156.981506,162.604950 158.694138,164.830353 158.698685,166.452179 
	C158.864807,225.767273 158.838379,285.082916 158.838379,345.269409 
	C156.863205,344.251709 155.303024,343.537018 153.828735,342.675354 
	C104.425240,313.799194 55.030300,284.908417 5.631242,256.024658 
	C4.341849,255.270752 3.020442,254.571609 1.356984,253.923462 
	C1.000000,223.645767 1.000000,193.291550 1.000002,162.468658 
z"/>
<path fill="#C1C6CF" opacity="1.000000" stroke="none" 
	d="
M501.000000,253.531342 
	C499.233490,254.801773 497.379639,255.453995 495.713196,256.427124 
	C446.438416,285.202057 397.182953,314.009979 347.919220,342.803802 
	C346.647766,343.546906 345.318268,344.190643 343.536011,345.134949 
	C343.382355,343.721222 343.169495,342.675476 343.169220,341.629639 
	C343.153320,283.639435 343.179382,225.649216 343.087738,167.659149 
	C343.082916,164.598495 344.057098,162.918167 346.687897,161.375320 
	C370.942078,147.151535 395.143585,132.836731 419.265320,118.389702 
	C422.099426,116.692291 424.122772,116.744125 426.910980,118.413132 
	C451.319641,133.024094 475.818115,147.484940 500.644989,161.995148 
	C501.000000,192.354233 501.000000,222.708450 501.000000,253.531342 
z"/>
<path fill="#F46A3D" opacity="1.000000" stroke="none" 
	d="
M209.999939,199.170563 
	C197.862045,199.170578 186.224152,199.170578 174.215408,199.170578 
	C174.215408,187.259064 174.215408,175.697952 174.215408,163.477463 
	C183.860092,163.477463 193.484344,163.251007 203.089783,163.577621 
	C207.567795,163.729874 210.175461,162.538422 212.485535,158.392365 
	C215.916519,152.234573 220.916916,148.442535 229.038834,148.812561 
	C243.501617,149.471481 258.040466,149.504425 272.499512,148.805710 
	C281.024841,148.393707 286.140564,152.327316 289.758698,158.899658 
	C291.745056,162.507919 293.997528,163.665482 297.946136,163.561890 
	C307.745880,163.304840 317.556915,163.477402 327.756775,163.477402 
	C327.756775,175.416901 327.756775,186.949799 327.756775,199.170547 
	C288.658203,199.170547 249.579086,199.170547 209.999939,199.170563 
z"/>
<path fill="#F36A3D" opacity="1.000000" stroke="none" 
	d="
M327.953430,260.611847 
	C326.563965,261.320801 325.306030,261.801422 324.047791,261.802368 
	C275.089355,261.839020 226.130890,261.832703 177.172424,261.823730 
	C176.356232,261.823578 175.540070,261.721497 174.287323,261.637817 
	C174.287323,249.855057 174.287323,238.184662 174.287323,226.253128 
	C225.416641,226.253128 276.458344,226.253128 328.084869,226.253128 
	C328.084869,237.646271 328.084869,248.903046 327.953430,260.611847 
z"/>
<path fill="#F26A3D" opacity="1.000000" stroke="none" 
	d="
M244.000061,288.824463 
	C272.128052,288.824463 299.756042,288.824463 327.771606,288.824463 
	C327.771606,300.702484 327.771606,312.259399 327.771606,324.175018 
	C276.719971,324.175018 225.674637,324.175018 174.232391,324.175018 
	C174.232391,312.582825 174.232391,301.050110 174.232391,288.824493 
	C197.333817,288.824493 220.416931,288.824493 244.000061,288.824463 
z"/>
<path fill="#F16A3D" opacity="1.000000" stroke="none" 
	d="
M207.194916,97.741287 
	C195.996765,90.293373 184.066910,86.136696 170.951462,85.346062 
	C168.087830,85.173439 166.223526,85.361656 164.636078,88.437820 
	C161.142044,95.208687 154.111343,98.201843 146.980667,96.767509 
	C140.077301,95.378899 134.709000,89.611221 133.926193,82.741821 
	C133.039383,74.959633 136.662613,68.527298 143.706360,65.378944 
	C150.384445,62.394039 157.308594,64.078156 162.848160,69.606445 
	C164.176788,70.932365 166.375778,71.988335 168.234406,72.091774 
	C202.899384,74.021065 228.171570,90.180962 243.115662,121.669159 
	C245.556625,126.812408 249.410446,124.580147 252.829300,125.149017 
	C255.896698,125.659401 257.470520,124.329842 258.852600,121.453308 
	C273.569244,90.823425 298.108368,74.593880 331.912964,72.315247 
	C335.151764,72.096931 337.599030,71.570305 340.074585,68.908386 
	C346.749084,61.731422 358.158356,62.441513 364.356018,69.882271 
	C370.597168,77.375229 369.119568,88.584343 361.167969,94.066765 
	C353.051849,99.662636 342.446472,97.346466 337.410492,88.734711 
	C336.194305,86.654976 335.419586,85.012993 332.326202,85.220047 
	C306.258179,86.964813 286.588959,98.996147 273.240814,121.412956 
	C272.665802,122.378609 272.297119,123.467102 271.724518,124.737534 
	C272.813507,125.211166 273.711243,125.579910 274.590790,125.987869 
	C278.551544,127.825058 280.580933,130.989685 279.647705,135.232590 
	C278.746216,139.331146 275.912598,141.936447 271.468964,141.957489 
	C257.812134,142.022186 244.154694,142.016205 230.497772,141.962387 
	C226.040176,141.944839 223.268448,139.351593 222.319626,135.247482 
	C221.325104,130.945648 223.405685,127.858711 227.334167,126.006493 
	C228.211670,125.592766 229.123398,125.251549 230.326263,124.748634 
	C224.917557,113.657059 217.308624,104.873993 207.194916,97.741287 
z"/>
<path fill="#F46B3D" opacity="1.000000" stroke="none" 
	d="
M255.000000,351.999420 
	C276.880798,351.999420 298.261597,351.999420 320.484558,351.999420 
	C312.940002,364.077332 303.812042,373.191803 292.628113,380.400452 
	C282.867004,386.692047 272.628296,390.460846 260.704559,389.288422 
	C253.947464,388.623993 247.005142,388.560883 240.263016,389.296753 
	C226.835846,390.762268 215.987137,385.119904 205.614365,377.908386 
	C195.994690,371.220490 188.130524,362.822632 181.540787,351.999420 
	C206.409210,351.999420 230.454605,351.999420 255.000000,351.999420 
z"/>
<path fill="#C0C5CE" opacity="1.000000" stroke="none" 
	d="
M237.485901,414.553345 
	C234.755890,409.798676 232.232407,405.347656 229.406158,400.362610 
	C243.969528,400.362610 257.929688,400.362610 272.643829,400.362610 
	C265.406342,412.941376 258.427124,425.071289 251.002167,437.975922 
	C246.260590,429.739838 241.976501,422.298401 237.485901,414.553345 
z"/>
</svg>